<?xml version="1.0" encoding="utf-8"?>
<!-- Generator: Adobe Illustrator 24.0.1, SVG Export Plug-In . SVG Version: 6.00 Build 0)  -->
<svg version="1.1" id="Layer_1" xmlns="http://www.w3.org/2000/svg" xmlns:xlink="http://www.w3.org/1999/xlink" x="0px" y="0px"
	 viewBox="0 0 1719.75 1598.51" style="enable-background:new 0 0 1719.75 1598.51;" xml:space="preserve">
<style type="text/css">
	.st0{fill:#FFFFFF;}
</style>
<g>
	<g>
		<path class="st0" d="M293.46,1569.67c-87.41,0-173.98,0-260.89,0c0-511.53,0-1022.92,0-1534.62c86.72,0,173.42,0,260.81,0
			c0,235.57,0,471.1,0,707.41c1.8-1.08,2.8-1.57,3.68-2.22c57.57-42.45,122.05-69.32,191.53-84.93
			c40.55-9.11,81.61-15.12,123.12-15.72c74.94-1.08,149.89-0.9,224.84-1.19c25.64-0.1,51.28-0.02,77.55-0.02
			c0-201.16,0-402.07,0-603.31c87.33,0,174.03,0,261.29,0c0,200.85,0,401.77,0,603.3c2.31,0,4.09,0.06,5.85-0.01
			c35.09-1.35,70.3-1.42,105.26-4.37c49.37-4.17,95.57-18.55,135.41-49.57c23.64-18.41,42.9-40.77,59.44-65.6
			c1.75-2.63,3.44-5.3,5.18-7.95c0.18-0.27,0.45-0.48,1.15-1.22c68.88,30.96,137.95,62,207.49,93.25c-1.41,3.06-2.66,5.9-4.01,8.69
			c-24.82,51.42-55.28,99.06-94.31,140.98c-49.86,53.54-109.47,92.15-178.33,116.61c-39.51,14.04-80.21,22.89-121.77,28.11
			c-38.25,4.81-76.65,6.35-115.15,6.03c-1.8-0.01-3.59,0-5.83,0c0,222.21,0,443.99,0,666.12c-87.27,0-174.08,0-261.44,0
			c0-221.96,0-443.73,0-666.12c-2.3,0-4.08,0-5.85,0c-103.77,0-207.54-0.06-311.31,0.03c-40.02,0.03-79.88,2.3-119.14,10.83
			c-32.45,7.05-63.25,18.16-90.83,37.18c-32.26,22.25-54.55,52.29-69.15,88.34c-12.73,31.44-19.52,64.3-21.88,97.98
			c-1.69,24.06-2.54,48.23-2.59,72.35c-0.25,117.42-0.12,234.85-0.12,352.27C293.46,1564.62,293.46,1566.93,293.46,1569.67z"/>
	</g>
</g>
</svg>
