<svg width="36" height="32" viewBox="0 0 36 32" fill="none" xmlns="http://www.w3.org/2000/svg">
<path d="M16.2051 9.30273C20.3861 9.30295 23.7754 12.6929 23.7754 16.874C23.7753 18.8139 23.0446 20.5823 21.8447 21.9219H21.8506L21.8213 21.9482C21.5335 22.2666 21.2185 22.5595 20.8809 22.8252L18.8242 24.7412H13.9062L18.877 19.666H18.834C19.4141 18.9893 19.7655 18.1107 19.7656 17.1494C19.7656 15.0119 18.033 13.2786 15.8955 13.2783C14.2116 13.2783 12.7795 14.354 12.2471 15.8555H11.3066C10.7743 14.354 9.34214 13.2783 7.6582 13.2783C5.52068 13.2785 3.78809 15.0118 3.78809 17.1494C3.7882 18.1107 4.13955 18.9893 4.71973 19.666H4.70996L4.78906 19.7471C4.85138 19.8159 4.91732 19.8812 4.98438 19.9453L11.7842 26.8691L11.7705 26.8838L14.1338 29.1123L11.6689 31.4092L2.66309 22.6367C2.40432 22.4162 2.16054 22.1788 1.93359 21.9258L1.92969 21.9219H1.93066C0.730736 20.5823 0.000122442 18.814 0 16.874C0 12.6928 3.3891 9.30277 7.57031 9.30273C9.17532 9.30273 10.6629 9.80332 11.8877 10.6553C13.1124 9.80342 14.6002 9.30273 16.2051 9.30273Z" fill="white"/>
<rect x="16.3173" y="1" width="18" height="18" rx="9" fill="#764579"/>
<rect x="16.3173" y="1" width="18" height="18" rx="9" stroke="#1A1A1A" stroke-width="2"/>
<path d="M25.063 14.0994C24.5611 14.0994 24.1137 14.0071 23.7207 13.8224C23.33 13.6378 23.0199 13.3833 22.7903 13.0589C22.5606 12.7346 22.4411 12.3629 22.4316 11.9439H23.9231C23.9397 12.2256 24.058 12.4541 24.2782 12.6293C24.4984 12.8045 24.76 12.892 25.063 12.892C25.3045 12.892 25.5175 12.8388 25.7022 12.7322C25.8892 12.6233 26.0348 12.473 26.139 12.2812C26.2455 12.0871 26.2988 11.8646 26.2988 11.6136C26.2988 11.358 26.2443 11.133 26.1354 10.9389C26.0289 10.7448 25.8809 10.5933 25.6916 10.4844C25.5022 10.3755 25.2855 10.3198 25.0417 10.3175C24.8286 10.3175 24.6215 10.3613 24.4202 10.4489C24.2214 10.5365 24.0663 10.656 23.955 10.8075L22.5879 10.5625L22.9323 6.72727H27.3783V7.98438H24.2001L24.0119 9.80611H24.0545C24.1823 9.62618 24.3753 9.47704 24.6333 9.35866C24.8914 9.24029 25.1802 9.18111 25.4998 9.18111C25.9378 9.18111 26.3284 9.28409 26.6717 9.49006C27.0149 9.69602 27.286 9.97893 27.4849 10.3388C27.6837 10.6963 27.782 11.1082 27.7796 11.5746C27.782 12.0646 27.6683 12.5002 27.4387 12.8814C27.2114 13.2602 26.893 13.5585 26.4835 13.7763C26.0763 13.9917 25.6028 14.0994 25.063 14.0994Z" fill="white"/>
</svg>
