<svg width="24" height="23" viewBox="0 0 24 23" fill="none" xmlns="http://www.w3.org/2000/svg">
<path d="M16.2051 0C20.3861 0.000218523 23.7754 3.39019 23.7754 7.57129C23.7753 9.51114 23.0446 11.2796 21.8447 12.6191H21.8506L21.8213 12.6455C21.5335 12.9639 21.2185 13.2568 20.8809 13.5225L18.8242 15.4385H13.9062L18.877 10.3633H18.834C19.4141 9.68654 19.7655 8.80792 19.7656 7.84668C19.7656 5.70917 18.033 3.97585 15.8955 3.97559C14.2116 3.97559 12.7795 5.05131 12.2471 6.55273H11.3066C10.7743 5.05128 9.34214 3.97559 7.6582 3.97559C5.52068 3.97577 3.78809 5.70912 3.78809 7.84668C3.7882 8.80795 4.13955 9.68653 4.71973 10.3633H4.70996L4.78906 10.4443C4.85138 10.5131 4.91732 10.5784 4.98438 10.6426L11.7842 17.5664L11.7705 17.5811L14.1338 19.8096L11.6689 22.1064L2.66309 13.334C2.40432 13.1134 2.16054 12.8761 1.93359 12.623L1.92969 12.6191H1.93066C0.730736 11.2796 0.000122442 9.51122 0 7.57129C0 3.39007 3.3891 3.29867e-05 7.57031 0C9.17532 0 10.6629 0.500591 11.8877 1.35254C13.1124 0.500689 14.6002 0 16.2051 0Z" fill="white"/>
</svg>
