<svg width="24" height="23" viewBox="0 0 24 23" fill="none" xmlns="http://www.w3.org/2000/svg">
<path d="M17.2432 0C20.6949 5.9787e-05 23.4932 2.79826 23.4932 6.25V12.4727C23.4932 15.9244 20.6949 18.7226 17.2432 18.7227H7.19238C6.73703 18.9307 6.20218 19.2614 5.73047 19.7109C5.05322 20.3563 4.52463 21.2224 4.51367 22.2852L4.51172 22.5273L4.26953 22.5322L0.548828 22.6064L0.273438 22.6113C0.280944 22.4891 0.292515 22.3688 0.303711 22.25C0.402144 21.2417 0.737502 20.0115 1.29297 18.8281C2.65938 16.2723 5.02679 15.2187 6.25 15.0918H17.6445C18.8872 15.0918 19.8945 14.0844 19.8945 12.8418V6.15234C19.8945 4.9097 18.8872 3.90234 17.6445 3.90234H6.23242C4.98978 3.90234 3.98242 4.9097 3.98242 6.15234V11.7012C2.3761 11.8578 1.07853 12.6097 0.110352 13.6396C0.038841 13.2615 0 12.8716 0 12.4727V6.25C2.57713e-07 2.79822 2.79822 0 6.25 0H17.2432Z" fill="#747474"/>
</svg>
