<svg width="36" height="32" viewBox="0 0 36 32" fill="none" xmlns="http://www.w3.org/2000/svg">
<path d="M17.2432 8.98438C20.6949 8.98443 23.4932 11.7826 23.4932 15.2344V21.457C23.4932 24.9088 20.6949 27.707 17.2432 27.707H7.19238C6.73703 27.9151 6.20218 28.2458 5.73047 28.6953C5.05322 29.3407 4.52463 30.2068 4.51367 31.2695L4.51172 31.5117L4.26953 31.5166L0.548828 31.5908L0.273438 31.5957C0.280944 31.4734 0.292515 31.3531 0.303711 31.2344C0.402144 30.2261 0.737502 28.9959 1.29297 27.8125C2.65938 25.2567 5.02679 24.2031 6.25 24.0762H17.6445C18.8872 24.0762 19.8945 23.0688 19.8945 21.8262V15.1367C19.8945 13.8941 18.8872 12.8867 17.6445 12.8867H6.23242C4.98978 12.8867 3.98242 13.8941 3.98242 15.1367V20.6855C2.3761 20.8421 1.07853 21.5941 0.110352 22.624C0.038841 22.2459 0 21.856 0 21.457V15.2344C2.57713e-07 11.7826 2.79822 8.98438 6.25 8.98438H17.2432Z" fill="white"/>
<rect x="16.4818" y="1" width="18" height="18" rx="9" fill="#764579"/>
<rect x="16.4818" y="1" width="18" height="18" rx="9" stroke="#1A1A1A" stroke-width="2"/>
<path d="M25.4392 13.6856C24.9373 13.6856 24.4899 13.5933 24.0969 13.4086C23.7063 13.224 23.3961 12.9695 23.1665 12.6452C22.9368 12.3208 22.8173 11.9491 22.8078 11.5301H24.2993C24.3159 11.8118 24.4342 12.0403 24.6544 12.2155C24.8746 12.3907 25.1362 12.4782 25.4392 12.4782C25.6807 12.4782 25.8938 12.425 26.0784 12.3184C26.2654 12.2095 26.411 12.0592 26.5152 11.8675C26.6217 11.6733 26.675 11.4508 26.675 11.1998C26.675 10.9442 26.6206 10.7193 26.5117 10.5251C26.4051 10.331 26.2572 10.1795 26.0678 10.0706C25.8784 9.96168 25.6617 9.90604 25.4179 9.90368C25.2048 9.90368 24.9977 9.94747 24.7965 10.0351C24.5976 10.1227 24.4425 10.2422 24.3313 10.3937L22.9641 10.1487L23.3085 6.31348H27.7545V7.57058H24.5763L24.3881 9.39231H24.4307C24.5585 9.21239 24.7515 9.06324 25.0095 8.94487C25.2676 8.8265 25.5564 8.76731 25.876 8.76731C26.314 8.76731 26.7046 8.87029 27.0479 9.07626C27.3911 9.28223 27.6622 9.56513 27.8611 9.92498C28.0599 10.2825 28.1582 10.6944 28.1558 11.1608C28.1582 11.6508 28.0446 12.0864 27.8149 12.4676C27.5876 12.8464 27.2692 13.1447 26.8597 13.3625C26.4525 13.5779 25.979 13.6856 25.4392 13.6856Z" fill="white"/>
</svg>
