<svg width="26" height="26" viewBox="0 0 26 26" fill="none" xmlns="http://www.w3.org/2000/svg">
<path d="M11.0887 1.12686C11.8174 -0.375209 13.9565 -0.375708 14.6863 1.12589L17.198 6.29288C17.4794 6.87182 18.0227 7.28002 18.657 7.38956L23.7049 8.26163C25.3198 8.54052 25.9325 10.5372 24.7517 11.6737L20.9266 15.3554C20.4278 15.8355 20.2128 16.5398 20.3582 17.2167L20.6541 18.5976L16.9558 16.4989L16.7996 15.2909C16.7799 15.139 16.8312 14.9864 16.9383 14.8769L19.7723 11.9794C20.0524 11.6928 19.8981 11.2092 19.5037 11.1376L15.5262 10.4159C15.379 10.3892 15.2513 10.2975 15.1785 10.1669L13.1355 6.50284C12.939 6.15046 12.4273 6.16388 12.2498 6.52628L10.4783 10.1435C10.4076 10.2877 10.2714 10.3898 10.1131 10.4169L5.88944 11.1386C5.48476 11.2081 5.3318 11.7093 5.6287 11.9931L8.63358 14.8651C8.75451 14.9807 8.81023 15.1497 8.78104 15.3144L8.05936 19.3847C7.98562 19.8009 8.42962 20.1151 8.79765 19.9071L12.4246 17.8573C12.5772 17.7711 12.7642 17.7711 12.9168 17.8573L13.0613 17.9384V17.9394L21.5467 22.7528C21.8823 24.4021 20.1478 25.7078 18.6531 24.9189L13.8641 22.3905C13.2557 22.0695 12.525 22.0834 11.9295 22.4276L7.01054 25.2733C5.54692 26.1201 3.75795 24.8817 4.03593 23.2138L5.04374 17.1669C5.15213 16.5165 4.93281 15.8546 4.4578 15.3974L0.615029 11.6982C-0.570412 10.5571 0.0522376 8.55159 1.67558 8.28311L7.11308 7.38468C7.75356 7.27875 8.30334 6.86816 8.58671 6.28409L11.0887 1.12686Z" fill="white"/>
</svg>
